<svg width="32" height="34" viewBox="0 0 32 34" fill="none" xmlns="http://www.w3.org/2000/svg">
<path d="M7.13008 7.76876H29.7121C30.3649 7.76876 30.8427 8.38405 30.681 9.01649L28.7801 16.4505C28.4405 17.7784 27.2442 18.7073 25.8736 18.7073H9.02537M0 1.49951H4.65214C5.63535 1.49951 6.47274 2.21416 6.62728 3.18515L9.6467 22.1561C9.80125 23.1271 10.6386 23.8418 11.6218 23.8418H28.203" stroke="black" stroke-width="1.5"/>
<path d="M15.7689 30.2655C15.7689 31.5677 14.7584 32.5757 13.5695 32.5757C12.3807 32.5757 11.3701 31.5677 11.3701 30.2655C11.3701 28.9633 12.3807 27.9553 13.5695 27.9553C14.7584 27.9553 15.7689 28.9633 15.7689 30.2655Z" stroke="black" stroke-width="1.5"/>
<path d="M28.7465 30.2655C28.7465 31.5677 27.7359 32.5757 26.5471 32.5757C25.3582 32.5757 24.3477 31.5677 24.3477 30.2655C24.3477 28.9633 25.3582 27.9553 26.5471 27.9553C27.7359 27.9553 28.7465 28.9633 28.7465 30.2655Z" stroke="black" stroke-width="1.5"/>
</svg>
