<svg width="21" height="19" viewBox="0 0 21 19" fill="none" xmlns="http://www.w3.org/2000/svg">
<path d="M5.24347 4.42146H18.6076C19.273 4.42146 19.7528 5.05921 19.5684 5.69857L18.8405 8.22255C18.4701 9.50688 17.2947 10.3912 15.958 10.3912H6.41012M0.854492 1H3.09588C4.06414 1 4.89333 1.6936 5.06441 2.64661L6.66214 11.5467C6.83322 12.4998 7.66242 13.1934 8.63067 13.1934H18.2151" stroke="white" stroke-width="1.5"/>
<path d="M10.2727 16.6992C10.2727 17.1496 9.85578 17.6193 9.20713 17.6193C8.55848 17.6193 8.1416 17.1496 8.1416 16.6992C8.1416 16.2487 8.55848 15.7791 9.20713 15.7791C9.85578 15.7791 10.2727 16.2487 10.2727 16.6992Z" stroke="white" stroke-width="1.5"/>
<path d="M18.2609 16.6992C18.2609 17.1496 17.8441 17.6193 17.1954 17.6193C16.5468 17.6193 16.1299 17.1496 16.1299 16.6992C16.1299 16.2487 16.5468 15.7791 17.1954 15.7791C17.8441 15.7791 18.2609 16.2487 18.2609 16.6992Z" stroke="white" stroke-width="1.5"/>
</svg>
