<svg xmlns="http://www.w3.org/2000/svg">
  <symbol viewBox="0 0 24 24" id="shopping-cart_yellow">
  <path d="M2.25 2.25a.75.75 0 000 1.5h1.386c.17 0 .318.114.362.278l2.558 9.592a3.752 3.752 0 00-2.806 3.63c0 .414.336.75.75.75h15.75a.75.75 0 000-1.5H5.378A2.25 2.25 0 017.5 15h11.218a.75.75 0 00.674-.421 60.358 60.358 0 002.96-7.228.75.75 0 00-.525-.965A60.864 60.864 0 005.68 4.509l-.232-.867A1.875 1.875 0 003.636 2.25H2.25zM3.75 20.25a1.5 1.5 0 113 0 1.5 1.5 0 01-3 0zM16.5 20.25a1.5 1.5 0 113 0 1.5 1.5 0 01-3 0z" fill="#E8AA31"/>
  </symbol>

  <symbol viewBox="0 0 24 24" id="chevron-right">
  <path d="M16.28 11.47a.75.75 0 010 1.06l-7.5 7.5a.75.75 0 01-1.06-1.06L14.69 12 7.72 5.03a.75.75 0 011.06-1.06l7.5 7.5z" clip-rule="evenodd" fill="#E8AA31"/>
  </symbol>

  <symbol width="30" height="34" viewBox="0 0 30 34" fill="none" id="plus-bg">
    <circle cx="15" cy="17" r="15" fill="#E8AA31" fill-opacity="0.5"/>
    <circle cx="15" cy="17" r="10" fill="#E8AA31"/>
    <path d="M19.52 18H15.98V21.5H13.84V18H10.3V16H13.84V12.5H15.98V16H19.52V18Z" fill="white"/>
  </symbol>

  <symbol viewBox="0 0 24 24" id="user">
    <path d="M10.5946 15.3117C10.6206 15.3117 10.6466 15.3117 10.6778 15.3117C10.6882 15.3117 10.6986 15.3117 10.709 15.3117C10.7246 15.3117 10.7455 15.3117 10.7611 15.3117C12.2854 15.2831 13.5184 14.6931 14.4288 13.5646C16.4318 11.0784 16.0988 6.81654 16.0624 6.40983C15.9323 3.35661 14.6213 1.89587 13.5392 1.21419C12.7328 0.704369 11.7912 0.429408 10.7402 0.406494H10.7038C10.6986 0.406494 10.6882 0.406494 10.683 0.406494H10.6518C10.0743 0.406494 8.94018 0.509605 7.85286 1.19128C6.76034 1.87296 5.4285 3.33369 5.29844 6.40983C5.26202 6.81654 4.92906 11.0784 6.93202 13.5646C7.83725 14.6931 9.07025 15.2831 10.5946 15.3117ZM6.6875 6.55304C6.6875 6.53585 6.6927 6.51867 6.6927 6.50721C6.86439 2.39997 9.51246 1.95888 10.6466 1.95888H10.6674C10.6778 1.95888 10.6934 1.95888 10.709 1.95888C12.1137 1.99325 14.5017 2.62337 14.6629 6.50721C14.6629 6.52439 14.6629 6.54158 14.6681 6.55304C14.6733 6.59314 15.0375 10.4884 13.3831 12.5392C12.7276 13.3526 11.8536 13.7536 10.7038 13.7651C10.6934 13.7651 10.6882 13.7651 10.6778 13.7651C10.6674 13.7651 10.6622 13.7651 10.6518 13.7651C9.50726 13.7536 8.62803 13.3526 7.97772 12.5392C6.32853 10.4999 6.6823 6.58741 6.6875 6.55304Z"/>
    <path d="M21.3682 22.3804C21.3682 22.3747 21.3682 22.3689 21.3682 22.3632C21.3682 22.3174 21.363 22.2716 21.363 22.22C21.3318 21.0858 21.2641 18.4336 19.0062 17.5858C18.9906 17.58 18.9698 17.5743 18.9542 17.5686C16.6079 16.9098 14.6569 15.4204 14.6361 15.4032C14.3188 15.1569 13.8817 15.2429 13.658 15.5923C13.4343 15.9417 13.5124 16.4229 13.8297 16.6692C13.9182 16.738 15.9888 18.3247 18.5796 19.0579C19.7918 19.5334 19.9271 20.9598 19.9635 22.2658C19.9635 22.3174 19.9635 22.3632 19.9687 22.409C19.9739 22.9246 19.9427 23.7208 19.8594 24.1791C19.0166 24.7061 15.713 26.5277 10.6874 26.5277C5.68257 26.5277 2.35816 24.7004 1.51015 24.1734C1.42691 23.7151 1.39049 22.9189 1.40089 22.4033C1.40089 22.3575 1.4061 22.3117 1.4061 22.2601C1.44251 20.954 1.57778 19.5277 2.78997 19.0522C5.38082 18.319 7.45143 16.7265 7.53987 16.6635C7.85722 16.4172 7.93526 15.936 7.71155 15.5866C7.48784 15.2371 7.05083 15.1512 6.73348 15.3975C6.71267 15.4147 4.77213 16.9041 2.41539 17.5628C2.39458 17.5686 2.37897 17.5743 2.36336 17.58C0.105466 18.4336 0.0378337 21.0858 0.00661858 22.2143C0.00661858 22.2658 0.00661846 22.3117 0.00141594 22.3575C0.00141594 22.3632 0.00141594 22.3689 0.00141594 22.3747C-0.00378658 22.6725 -0.00898899 24.202 0.266745 24.9696C0.31877 25.1186 0.412415 25.2446 0.537276 25.3305C0.693352 25.4451 4.43396 28.0687 10.6926 28.0687C16.9512 28.0687 20.6918 25.4394 20.8479 25.3305C20.9676 25.2446 21.0664 25.1186 21.1185 24.9696C21.3786 24.2078 21.3734 22.6783 21.3682 22.3804Z"/>
  </symbol>


</svg>
